<svg width="375" height="218" fill="none" xmlns="http://www.w3.org/2000/svg"><g clip-rule="evenodd" stroke="#96A9C6"><path d="M309.564 41.343C213.876 11.405 115.487-38.526 14.757 52.675c-100.73 91.202-164.058 171.093-123.163 274.463 40.896 103.37 207.827 38.985 256.33 131.373 48.503 92.388-58.069 176.237-12.123 258.462 45.945 82.225 81.274 134.924 228.927 82.643 147.654-52.282 134.04-185.308 246.324-263.207 112.283-77.898 233.767-194.516 67.05-402.604C511.384-74.283 405.251 71.279 309.564 41.342Z"/><path d="M321.902 90.672C243.919 66.358 163.733 25.804 81.64 99.877-.454 173.95-52.066 238.837-18.737 322.794c33.33 83.956 169.376 31.663 208.905 106.7 39.528 75.037-47.325 143.14-9.881 209.922C217.733 706.199 246.525 749 366.86 706.538c120.335-42.463 109.24-150.506 200.75-213.775 91.509-63.269 190.516-157.985 54.644-326.993C486.382-3.238 399.885 114.986 321.902 90.672Z"/><path d="M344.947 122.546c-63.103-19.824-127.989-52.889-194.418 7.504-66.43 60.393-108.193 113.297-81.223 181.748s137.057 25.816 169.044 86.995c31.986 61.178-38.296 116.703-7.996 171.152 30.3 54.449 53.599 89.346 150.973 54.725 97.374-34.62 88.396-122.709 162.445-174.293 74.048-51.584 154.164-128.808 44.218-266.603-109.947-137.795-179.939-41.404-243.043-61.228Z"/><path d="M368.21 162.166c-50.939-15.881-103.316-42.369-156.94 6.012-53.623 48.382-87.336 90.763-65.565 145.6 21.77 54.836 110.636 20.68 136.457 69.691 25.82 49.011-30.913 93.492-6.454 137.111 24.459 43.62 43.266 71.576 121.869 43.841 78.604-27.734 71.356-98.303 131.13-139.628 59.775-41.324 124.446-103.188 35.694-213.576-88.752-110.388-145.252-33.17-196.191-49.051Z"/><path d="M373.18 187.232c-41.598-12.997-84.371-34.675-128.162 4.92-43.791 39.594-71.321 74.279-53.543 119.157 17.779 44.877 90.35 16.925 111.435 57.035 21.086 40.11-25.244 76.513-5.27 112.21 19.974 35.698 35.332 58.577 99.522 35.879s58.272-80.451 107.085-114.27c48.814-33.819 101.627-84.448 29.149-174.789s-118.617-27.146-160.216-40.142Z"/><path d="M384.992 205.895c-33.778-10.551-68.51-28.149-104.069 3.994-35.558 32.143-57.914 60.299-43.477 96.731 14.436 36.432 73.365 13.74 90.486 46.301 17.122 32.561-20.498 62.113-4.279 91.092s28.69 47.552 80.813 29.127c52.123-18.426 47.317-65.31 86.954-92.765 39.637-27.454 82.522-68.555 23.669-141.893-58.852-73.338-96.318-22.037-130.097-32.587Z"/></g></svg>